<?xml version="1.0" standalone="no"?>
<!DOCTYPE svg PUBLIC "-//W3C//DTD SVG 20010904//EN"
 "http://www.w3.org/TR/2001/REC-SVG-20010904/DTD/svg10.dtd">
<svg version="1.0" xmlns="http://www.w3.org/2000/svg"
 width="1024.000000pt" height="1024.000000pt" viewBox="0 0 1024.000000 1024.000000"
 preserveAspectRatio="xMidYMid meet">
<metadata>
Created by potrace 1.14, written by Peter Selinger 2001-2017
</metadata>
<g transform="translate(0.000000,1024.000000) scale(0.100000,-0.100000)"
fill="#000000" stroke="none">
<path d="M4780 10229 c-1112 -74 -2168 -509 -3015 -1243 -158 -137 -445 -430
-575 -586 -916 -1102 -1326 -2502 -1149 -3920 125 -1006 544 -1943 1213 -2715
137 -158 430 -445 586 -575 1102 -916 2502 -1326 3920 -1149 1006 125 1943
544 2715 1213 158 137 445 430 575 586 916 1102 1326 2502 1149 3920 -125
1006 -544 1943 -1213 2715 -137 158 -430 445 -586 575 -939 780 -2098 1197
-3305 1188 -104 0 -246 -5 -315 -9z m2684 -3283 c61 -25 66 -43 66 -214 0 -91
4 -162 11 -174 6 -11 29 -28 52 -39 39 -17 73 -19 523 -19 265 0 496 -3 513
-6 17 -4 45 -19 61 -34 l30 -28 0 -390 0 -390 -34 -30 c-26 -22 -49 -32 -88
-37 -29 -3 -532 -5 -1118 -3 -991 3 -1067 4 -1097 20 -59 33 -63 47 -63 214 0
84 -3 160 -6 169 -4 9 -24 25 -45 35 -36 19 -62 20 -531 20 -305 0 -507 4
-530 10 -20 6 -48 24 -62 41 -26 30 -26 34 -26 188 0 150 -1 158 -22 179 -13
11 -36 25 -51 31 -19 7 -197 11 -523 11 -528 0 -535 -1 -579 -50 -19 -21 -20
-36 -20 -412 l0 -390 28 -23 c15 -13 44 -29 65 -34 24 -7 402 -11 1124 -11
670 0 1096 -4 1112 -10 14 -5 34 -18 46 -30 18 -18 20 -32 20 -178 0 -172 4
-188 60 -217 25 -13 171 -15 1117 -15 697 0 1101 -4 1124 -10 20 -6 48 -21 63
-35 l26 -24 0 -619 0 -618 -31 -30 -30 -29 -522 -5 c-366 -4 -530 -9 -548 -17
-15 -6 -36 -24 -48 -39 -19 -25 -21 -39 -21 -184 0 -150 -1 -157 -22 -177 -13
-11 -33 -26 -45 -32 -31 -16 -4625 -16 -4656 0 -12 6 -32 21 -44 32 -22 20
-23 27 -23 178 0 154 -1 158 -25 187 -18 22 -40 34 -76 41 -32 7 -227 11 -539
11 l-489 0 -36 31 -35 31 0 385 c0 245 4 391 10 404 6 10 28 28 50 39 39 20
58 20 1140 20 1169 0 1140 1 1182 -46 13 -16 17 -47 20 -181 3 -155 4 -162 27
-187 14 -14 41 -30 60 -36 22 -6 233 -10 528 -10 293 0 501 -4 515 -10 62 -26
63 -27 68 -211 l5 -171 28 -23 c15 -13 44 -29 65 -34 46 -14 940 -14 996 -1
22 5 51 17 65 28 l26 19 3 398 c2 368 1 400 -15 418 -43 48 -11 47 -1177 47
-751 0 -1104 3 -1123 11 -15 6 -38 20 -50 31 -22 20 -23 29 -23 174 0 89 -5
163 -11 177 -6 13 -25 32 -42 43 -31 18 -71 19 -1152 24 -874 4 -1125 8 -1142
18 -55 31 -53 6 -53 667 0 548 2 613 16 634 35 50 47 51 571 51 318 0 502 4
527 11 21 6 49 21 62 34 23 23 24 29 24 182 0 175 5 193 64 219 47 20 4631 21
4680 0z"/>
</g>
</svg>
